<?xml version="1.0" encoding="UTF-8" standalone="no"?>
<svg
   width="544.88544"
   zoomAndPan="magnify"
   viewBox="0 0 408.66408 114.92968"
   height="153.23958"
   preserveAspectRatio="xMidYMid"
   version="1.0"
   id="svg418"
   xmlns="http://www.w3.org/2000/svg"
   xmlns:svg="http://www.w3.org/2000/svg">
  <defs
     id="defs32">
    <clipPath
       id="dfaafb621d">
      <path
         d="m 674,0 h 349.6445 V 115 H 674 Z m 0,0"
         clip-rule="nonzero"
         id="path11" />
    </clipPath>
    <clipPath
       id="5f91e3cc07">
      <path
         d="M 614.39062,0 H 1023.6445 V 98 H 614.39062 Z m 0,0"
         clip-rule="nonzero"
         id="path12" />
    </clipPath>
  </defs>
  <path
     fill="#d8e5dc"
     d="M 386.16407,24.082031 372.42578,90.492188 C 312.59375,96.539062 301.71484,69.773438 263.85547,68.195312 215.93359,66.199219 202.00391,90.175781 144.33203,71.289062 131.02344,66.929688 118.49609,60.445312 110.41016,51.117188 l 2.78906,-33.902344 z m 0,0"
     fill-opacity="1"
     fill-rule="evenodd"
     id="path50" />
  <g
     clip-path="url(#dfaafb621d)"
     id="g51"
     transform="translate(-614.83203)">
    <path
       fill="#f0dbdb"
       d="M 1023.4961,114.92969 V -0.253906 H 674.48437 c 5.32032,13.613281 12.46875,26.113281 23.7461,36.085937 19.39453,17.148438 33.85547,18.550781 58.20312,15.621094 45.71094,-5.492187 96.21485,-33.625 139.55078,-21.851563 39.78907,10.808594 56.11719,45.746094 88.46875,68.0625 12.8711,8.878908 25.87888,14.832028 39.04298,17.265628 z m 0,0"
       fill-opacity="1"
       fill-rule="evenodd"
       id="path51" />
  </g>
  <g
     clip-path="url(#5f91e3cc07)"
     id="g52"
     transform="translate(-614.83203)">
    <path
       fill="#979e75"
       d="m 617.59766,-0.253906 c 3.80078,7.613281 8.17578,15 12.83593,21.480468 5.20703,7.25 10.75782,13.347657 16.23438,17.335938 26.89453,19.589844 63.97265,9.625 94.45312,1.433594 1.30469,-0.351563 2.59766,-0.699219 3.875,-1.042969 8.74219,-2.332031 17.99219,-5.085937 27.57032,-7.9375 C 814.875,18.421875 863.53125,3.9375 903.29687,15.019531 c 34.69141,9.667969 48.23438,24.632813 62.84375,40.769531 8.08204,8.933594 16.5,18.230469 29.08594,27.152344 4.33203,3.070313 9.26174,5.730469 14.37114,7.867188 4.6015,1.917968 9.332,3.414062 13.8984,4.398437 v 2.535157 c -4.8828,-1.015626 -9.9492,-2.59375 -14.8516,-4.640626 -5.2656,-2.203124 -10.36325,-4.953124 -14.85544,-8.136718 C 980.99609,75.898438 972.48047,66.488281 964.30078,57.453125 949.94531,41.589844 936.63672,26.886719 902.63672,17.410156 863.55859,6.519531 815.26562,20.894531 773.27344,33.394531 c -9.59766,2.859375 -18.8711,5.621094 -27.63282,7.960938 -1.28125,0.339843 -2.57421,0.6875 -3.8789,1.039062 -30.99219,8.332031 -68.69141,18.464844 -96.55078,-1.828125 -5.70313,-4.15625 -11.44141,-10.445312 -16.78907,-17.890625 -4.96093,-6.902343 -9.60546,-14.808593 -13.58984,-22.929687 z m 0,0"
       fill-opacity="1"
       fill-rule="nonzero"
       id="path52" />
  </g>
</svg>
