<?xml version="1.0" encoding="UTF-8" standalone="no"?>
<svg
   width="179.25989"
   zoomAndPan="magnify"
   viewBox="0 0 134.44492 44.910439"
   height="59.880585"
   preserveAspectRatio="xMidYMid"
   version="1.0"
   id="svg418"
   sodipodi:docname="Portfolio arch.digitales - Inicio.svg"
   xmlns:inkscape="http://www.inkscape.org/namespaces/inkscape"
   xmlns:sodipodi="http://sodipodi.sourceforge.net/DTD/sodipodi-0.dtd"
   xmlns="http://www.w3.org/2000/svg"
   xmlns:svg="http://www.w3.org/2000/svg">
  <sodipodi:namedview
     id="namedview418"
     pagecolor="#505050"
     bordercolor="#ffffff"
     borderopacity="1"
     inkscape:showpageshadow="0"
     inkscape:pageopacity="0"
     inkscape:pagecheckerboard="1"
     inkscape:deskcolor="#505050">
    <inkscape:page
       x="0"
       y="0"
       width="134.44492"
       height="44.910439"
       id="page2"
       margin="0"
       bleed="0" />
  </sodipodi:namedview>
  <defs
     id="defs32">
    <clipPath
       id="5a6abee0cc">
      <path
         d="m 889,143.79297 h 134.9453 v 44.97265 H 889 Z m 0,0"
         clip-rule="nonzero"
         id="path14" />
    </clipPath>
    <clipPath
       id="48f66bb3d4">
      <path
         d="M 0.203125,7 H 134.94531 V 45.765625 H 0.203125 Z m 0,0"
         clip-rule="nonzero"
         id="path15" />
    </clipPath>
    <clipPath
       id="d160b721a5">
      <path
         d="M 9,0.792969 H 134.94531 V 39 H 9 Z m 0,0"
         clip-rule="nonzero"
         id="path16" />
    </clipPath>
    <clipPath
       id="6ab92e8013">
      <rect
         x="0"
         width="135"
         y="0"
         height="46"
         id="rect16" />
    </clipPath>
  </defs>
  <g
     clip-path="url(#5a6abee0cc)"
     id="g68"
     transform="translate(-891.78214,-140.37036)">
    <g
       transform="translate(891.28174,139.57739)"
       id="g67">
      <g
         clip-path="url(#6ab92e8013)"
         id="g66">
        <g
           clip-path="url(#48f66bb3d4)"
           id="g64">
          <path
             fill="#dba39a"
             d="m 1.164062,43.550781 c -1.2187495,1.398438 -0.710937,2.351563 1.128907,2.117188 0,0 42.257812,-5.351563 70.0625,-5.351563 27.804691,0 70.050781,5.351563 70.050781,5.351563 0.21094,0.03125 0.42187,0.04297 0.63672,0.02734 0.21094,-0.01562 0.41797,-0.05078 0.625,-0.109374 0.20312,-0.0625 0.39844,-0.140626 0.58594,-0.246094 0.18359,-0.101563 0.35937,-0.222656 0.51953,-0.363282 0.15625,-0.140624 0.30078,-0.296874 0.42578,-0.46875 0.125,-0.171874 0.23047,-0.355468 0.3164,-0.550781 0.082,-0.195312 0.14454,-0.398437 0.1875,-0.605469 0.0391,-0.210937 0.0586,-0.421874 0.0508,-0.632812 V 16.25 c -0.008,-0.460938 -0.0977,-0.910156 -0.26563,-1.339844 -0.16797,-0.429687 -0.40625,-0.816406 -0.71484,-1.160156 -0.3086,-0.347656 -0.66407,-0.628906 -1.07422,-0.847656 -0.40625,-0.214844 -0.83985,-0.355469 -1.29688,-0.417969 0,0 -42.52734,-4.894531 -70.046871,-4.894531 -27.519531,0 -70.058594,4.894531 -70.058594,4.894531 -1.84375,0.210937 -2.34375,1.519531 -1.113281,2.914063 l 10.121094,11.441406 c 1.230468,1.386718 1.238281,3.671875 0.01562,5.058594 z m 0,0"
             fill-opacity="1"
             fill-rule="nonzero"
             id="path64" />
        </g>
        <g
           clip-path="url(#d160b721a5)"
           id="g65">
          <path
             fill="#f0dbdb"
             d="m 10.640625,36.753906 c -1.21875,1.398438 -0.710937,2.351563 1.132813,2.117188 0,0 42.253906,-5.351563 70.058593,-5.351563 27.804689,0 70.050779,5.351563 70.050779,5.351563 0.21094,0.03516 0.42188,0.04297 0.63672,0.02734 0.21094,-0.01172 0.41797,-0.05078 0.625,-0.109376 0.20313,-0.05859 0.39844,-0.140624 0.58594,-0.242187 0.18359,-0.105469 0.35937,-0.226563 0.51953,-0.367187 0.15625,-0.140626 0.30078,-0.296876 0.42578,-0.46875 0.125,-0.171876 0.23047,-0.355469 0.31641,-0.550782 0.082,-0.195312 0.14453,-0.398437 0.1875,-0.605468 0.0391,-0.210938 0.0586,-0.421876 0.0508,-0.632813 V 9.445312 c -0.0117,-0.457031 -0.10156,-0.902343 -0.26953,-1.332031 -0.16797,-0.429687 -0.40625,-0.816406 -0.71094,-1.160156 -0.30859,-0.34375 -0.66406,-0.621094 -1.07031,-0.839844 -0.40625,-0.21875 -0.83985,-0.355469 -1.29688,-0.421875 0,0 -42.52343,-4.902344 -70.042966,-4.902344 C 54.316406,0.785156 11.78125,5.691406 11.78125,5.691406 9.9375,5.90625 9.433594,7.210938 10.664062,8.605469 l 10.121094,11.441406 c 1.230469,1.390625 1.238282,3.671875 0.01953,5.070313 z m 0,0"
             fill-opacity="1"
             fill-rule="nonzero"
             id="path65" />
        </g>
      </g>
    </g>
  </g>
</svg>
