<?xml version="1.0" encoding="UTF-8" standalone="no"?>
<svg
   width="179.25989"
   zoomAndPan="magnify"
   viewBox="0 0 134.44492 44.910461"
   height="59.880615"
   preserveAspectRatio="xMidYMid"
   version="1.0"
   id="svg418"
   xmlns="http://www.w3.org/2000/svg"
   xmlns:svg="http://www.w3.org/2000/svg">
  <defs
     id="defs32">
    <clipPath
       id="d721e35a6d">
      <path
         d="m 889,209.90234 h 134.9453 V 254.875 H 889 Z m 0,0"
         clip-rule="nonzero"
         id="path17" />
    </clipPath>
    <clipPath
       id="588da379b2">
      <path
         d="M 0.203125,7 H 134.94531 V 45.875 H 0.203125 Z m 0,0"
         clip-rule="nonzero"
         id="path18" />
    </clipPath>
    <clipPath
       id="2cf8e9bad8">
      <path
         d="M 9,0.902344 H 134.94531 V 40 H 9 Z m 0,0"
         clip-rule="nonzero"
         id="path19" />
    </clipPath>
    <clipPath
       id="8909f24eee">
      <rect
         x="0"
         width="135"
         y="0"
         height="46"
         id="rect19" />
    </clipPath>
  </defs>
  <g
     clip-path="url(#d721e35a6d)"
     id="g73"
     transform="translate(-889.50034,-209.90234)">
    <g
       transform="translate(889,209)"
       id="g72">
      <g
         clip-path="url(#8909f24eee)"
         id="g71">
        <g
           clip-path="url(#588da379b2)"
           id="g69">
          <path
             fill="#94a4a4"
             d="m 1.164062,43.660156 c -1.2187495,1.398438 -0.710937,2.351563 1.128907,2.117188 0,0 42.257812,-5.351563 70.0625,-5.351563 27.804691,0 70.050781,5.351563 70.050781,5.351563 0.21094,0.03516 0.42187,0.04297 0.63672,0.02734 0.21094,-0.01172 0.41797,-0.05078 0.625,-0.109376 0.20312,-0.05859 0.39844,-0.140624 0.58594,-0.242187 0.18359,-0.105469 0.35937,-0.226563 0.51953,-0.367187 0.15625,-0.140626 0.30078,-0.296876 0.42578,-0.46875 0.125,-0.171876 0.23047,-0.355469 0.3164,-0.550782 0.082,-0.195312 0.14454,-0.398437 0.1875,-0.605468 0.0391,-0.210938 0.0586,-0.421876 0.0508,-0.632813 v -26.46875 c -0.008,-0.460937 -0.0977,-0.90625 -0.26563,-1.335937 -0.16797,-0.433594 -0.40625,-0.820313 -0.71484,-1.164063 -0.3086,-0.347656 -0.66407,-0.628906 -1.07422,-0.84375 -0.40625,-0.21875 -0.83985,-0.359375 -1.29688,-0.421875 0,0 -42.52734,-4.890625 -70.046871,-4.890625 -27.519531,0 -70.058594,4.890625 -70.058594,4.890625 -1.84375,0.214844 -2.34375,1.519531 -1.113281,2.914062 l 10.121094,11.441407 c 1.230468,1.390625 1.238281,3.671875 0.01562,5.0625 z m 0,0"
             fill-opacity="1"
             fill-rule="nonzero"
             id="path68" />
        </g>
        <g
           clip-path="url(#2cf8e9bad8)"
           id="g70">
          <path
             fill="#d8e5dc"
             d="m 10.640625,36.863281 c -1.21875,1.398438 -0.710937,2.351563 1.132813,2.121094 0,0 42.253906,-5.351563 70.058593,-5.351563 27.804689,0 70.050779,5.351563 70.050779,5.351563 0.21094,0.03125 0.42188,0.03906 0.63672,0.02734 0.21094,-0.01563 0.41797,-0.05078 0.625,-0.113281 0.20313,-0.05859 0.39844,-0.140626 0.58594,-0.242188 0.18359,-0.101562 0.35937,-0.226562 0.51953,-0.367188 0.15625,-0.140624 0.30078,-0.296874 0.42578,-0.46875 0.125,-0.171874 0.23047,-0.355468 0.31641,-0.550781 0.082,-0.195312 0.14453,-0.394531 0.1875,-0.605469 0.0391,-0.207031 0.0586,-0.417968 0.0508,-0.632812 V 9.558594 c -0.0117,-0.460938 -0.10156,-0.90625 -0.26953,-1.335938 -0.16797,-0.425781 -0.40625,-0.8125 -0.71094,-1.15625 -0.30859,-0.34375 -0.66406,-0.625 -1.07031,-0.84375 -0.40625,-0.214844 -0.83985,-0.355468 -1.29688,-0.417968 0,0 -42.52343,-4.902344 -70.042966,-4.90625 -27.523438,0 -70.058594,4.90625 -70.058594,4.90625 C 9.9375,6.015625 9.433594,7.320312 10.664062,8.71875 l 10.121094,11.4375 c 1.230469,1.390625 1.238282,3.675781 0.01953,5.070312 z m 0,0"
             fill-opacity="1"
             fill-rule="nonzero"
             id="path69" />
        </g>
      </g>
    </g>
  </g>
</svg>
