<?xml version="1.0" encoding="UTF-8" standalone="no"?>
<svg
   width="387.76712"
   zoomAndPan="magnify"
   viewBox="0 0 290.82534 229.2461"
   height="305.66147"
   preserveAspectRatio="xMidYMid"
   version="1.0"
   id="svg418"
   xmlns="http://www.w3.org/2000/svg"
   xmlns:svg="http://www.w3.org/2000/svg">
  <defs
     id="defs32">
    <clipPath
       id="60810ef05c">
      <path
         d="M 0.0546875,344.04297 H 291 V 573.40625 H 0.0546875 Z m 0,0"
         clip-rule="nonzero"
         id="path3" />
    </clipPath>
    <clipPath
       id="bfd3d41c20">
      <path
         d="M 0.0546875,415 H 177 V 573.40625 H 0.0546875 Z m 0,0"
         clip-rule="nonzero"
         id="path5" />
    </clipPath>
    <clipPath
       id="4314b9b325">
      <path
         d="M 0.0546875,378 H 143 V 571 H 0.0546875 Z m 0,0"
         clip-rule="nonzero"
         id="path6" />
    </clipPath>
  </defs>
  <g
     clip-path="url(#60810ef05c)"
     id="g38"
     transform="translate(-0.0546875,-344.09375)">
    <path
       fill="#f0dbdb"
       d="M 0.0546875,573.33984 H 289.24219 c 2.96484,-8.07031 1.77734,-14.93359 -2.53516,-20.88281 C 273.875,534.77344 245.73828,533.82422 228.61719,518.13672 208.82422,500.00391 218.5625,486.70703 208.68359,469.39062 204.48828,462.04297 194.81641,453.42187 182.8125,444.71094 105.44922,388.56641 79.863281,413.75781 38.371094,389.20312 23.449219,380.36719 10.46875,365.92578 0.0546875,344.09375 Z m 0,0"
       fill-opacity="1"
       fill-rule="evenodd"
       id="path37" />
  </g>
  <g
     clip-path="url(#bfd3d41c20)"
     id="g40"
     transform="translate(-0.0546875,-344.09375)">
    <path
       fill="#d8e5dc"
       d="M 0.0546875,573.33984 H 176.00781 c 0.6211,-10.48047 0.47266,-20.18359 -0.42578,-29.14453 -2.01172,-20.14453 -6.96484,-39.8789 -24.44531,-52.17969 C 128.70703,476.22656 97,479.71094 69.890625,464.30469 44.519531,449.88281 49.550781,431.28516 30.363281,420.69531 22.402344,416.30859 12.359375,414.82422 0.0546875,416.46875 Z m 0,0"
       fill-opacity="1"
       fill-rule="evenodd"
       id="path39" />
  </g>
  <g
     clip-path="url(#4314b9b325)"
     id="g41"
     transform="translate(-0.0546875,-344.09375)">
    <path
       fill="#979e75"
       d="m 69.496094,489.33203 z m 0.859375,-0.92187 c 3.203125,-2 8.378906,-6.57813 10.035156,-9.01563 6.570313,-9.70312 17.425781,-12.34375 27.886715,-15.78516 8.85547,-2.91406 9.23047,-2.17578 17.14063,-7.98046 2.10156,-1.54297 14.89453,-19.35157 15.60937,-21.19141 0.65625,3.57422 -10.01172,23.85156 -13.14453,27.62891 -5.71484,6.89062 -17.46093,11.45312 -25.36328,16.30468 -6.902342,4.23828 -4.664061,1.20703 -11.820311,8.30469 -4.183594,4.14844 -22.394531,11.59766 -29.742188,10.64844 z M 0.0546875,553.00391 c 4.1953125,-1.37891 8.2539065,-3 12.1328125,-4.92969 4.082031,-2.02735 7.945312,-4.38672 11.539062,-7.14453 2.957032,-2.27344 5.558594,-4.8086 7.941407,-7.51172 2.152343,-0.94531 4.339843,-1.60156 6.554687,-2.01953 9.761719,-1.84375 17.257813,1.93359 26.464844,0.14062 10.792969,-2.10156 15,-8.61719 24.105469,-12.52734 4.675781,-2.01172 10.578125,-2.39063 15.667971,-3.17188 2.92187,-0.78125 6.3125,-0.89453 9.38672,-1.1914 4.23437,-0.40625 6,-1.02735 9.52343,-3.30078 2.11719,-1.36719 3.94532,-3.12891 6.11719,-4.27735 1.72266,-0.90625 3.95313,-1.85937 5.74219,-2.92969 2.33594,-1.39062 4.6914,-2.92968 7.05859,-4.625 -2.44922,0.95704 -4.93359,1.65625 -7.46094,2.03907 -2.23828,0.33593 -4.51562,0.42187 -6.82812,0.21093 -1.52344,-0.16406 -3.04687,-0.50781 -4.57422,-0.74218 -3.71484,-0.58203 -7.9414,0.10547 -11.97265,-0.15625 -8.66797,-0.55469 -13.687505,-1.63672 -21.937505,1.95312 -6.222656,2.69922 -11.957031,7.39453 -18.441406,10.54688 -6.460938,3.14453 -12.984375,4.6289 -19.242188,7.66406 -4.253906,2.05859 -7.945312,4.30859 -11.835937,5.44922 -1.175782,0.34765 -2.316406,0.6289 -3.425782,0.82812 1.882813,-2.54297 3.675782,-5.15625 5.46875,-7.77343 3.234376,-4.71875 6.472657,-9.44922 10.257813,-13.72657 2.929687,-3.3125 5.824219,-5.96093 8.660156,-8.48437 l 0.992188,-0.88672 c 2.261719,-2.00781 4.484375,-3.98047 6.644531,-6.17188 0.300781,-0.30859 0.601562,-0.61718 0.902344,-0.93359 0.285156,-0.30469 0.570312,-0.60937 0.859375,-0.92187 1.914062,-2.09766 3.773437,-4.4336 5.570312,-7.19141 2.277344,-3.48828 4.476563,-7.37891 6.625,-11.51172 1.714844,-3.29297 3.355469,-6.65625 4.960938,-10.05469 2.851562,-4.28515 5.902343,-8.30468 8.117187,-12.52343 3.832032,-7.3125 9.082034,-17.4375 9.386724,-25.65235 0.4375,-11.85156 -5.410161,-21.37109 -7.570318,-32.625 -0.652343,-3.40625 -1.011718,-6.86328 -0.980468,-10.36328 -1.167969,3.13672 -1.949219,6.37891 -2.472656,9.69141 -1.804688,11.44922 0.191406,16.44922 -4.46875,28.08984 -2.875,7.1875 -7.375,15.27734 -7.765626,23.04688 -0.308593,6.14843 1.984376,11.36328 2.0625,17.64843 0.0078,0.69141 -0.0039,1.3711 -0.03906,2.04297 -1.484375,3.13672 -2.96875,6.17188 -4.457031,9.02344 -2.078125,3.99219 -4.214844,7.77344 -6.453125,11.20312 -3.089844,4.73829 -6.433594,8.19532 -9.917969,11.41407 0.148437,-0.53125 0.300781,-1.07032 0.460937,-1.60938 1.808594,-6.19922 4.578126,-11.43359 6.171876,-17.23437 2.359374,-8.59766 2.710937,-14.02344 0.144531,-22.42578 -2.167969,-7.08985 -5.226563,-12.06641 -7.652344,-18.4336 -1.019531,-2.68359 -1.789063,-5.625 -2.414063,-8.70703 -1.453124,2.99609 -2.449218,5.98047 -3.15625,8.96094 -1.847656,7.82031 -1.253906,14.94531 -2.078124,22.82031 -0.835938,8.00391 -3.386719,15.94141 -2.863282,23.86719 0.503906,7.55859 2.640625,11.64062 5.683594,17.875 -2.539062,2.28906 -5.113281,4.72265 -7.6875,7.63281 -3.910156,4.42188 -7.222656,9.25781 -10.53125,14.07813 -1.847656,2.69921 -3.691406,5.39453 -5.636719,7.99218 -0.04687,-11.00781 0.601563,-25.64843 -1.464843,-35.61328 -1.828126,-8.80469 -7.507813,-16.0039 -8.515626,-23.29297 -0.273437,-2.01562 -0.296874,-4.28515 0.07031,-6.92968 -2.582031,9.625 -5.15625,19.24218 -7.734375,28.86328 -0.835938,8.0664 -1.929688,14.80859 0.863281,22.79687 2.554688,7.3086 8.363281,12.625 13.574219,18.25391 -2.597656,3.10547 -5.425781,6 -8.6875,8.5 -3.410156,2.62109 -7.070312,4.85937 -10.933594,6.77344 -3.34375,1.66796 -6.863281,3.10156 -10.5117185,4.34765 z m 0,0.83203 c 7.4531245,1.375 14.2539065,2.21093 20.0546875,2.22656 11.054687,0.0352 16.039063,-4.57813 25.703125,-5.55859 7.703125,-0.77735 14.890625,2.9414 23.058594,3.49218 5.15625,0.34766 12.371094,-0.79297 17.515625,-1.92968 5.355469,-1.1836 11.089843,-3.08985 16.804691,-4.96094 -2.81641,2.07422 -6.000004,3.95703 -9.617191,5.60156 -4.191407,1.91016 -9.851563,2.96484 -13.246094,4.91016 -0.984375,0.5664 -1.960937,1.19922 -2.980469,1.64843 -2.308594,1.00391 -4.707031,1.78907 -7.203125,2.31641 -8.949219,1.89453 -14.699219,-0.70703 -24.40625,2.59375 -9.8125,3.33984 -20.117187,8.95703 -30.691406,5.73828 -5,-1.51953 -9.996094,-4.61719 -14.9921875,-8.89453 z m 0,0"
       fill-opacity="1"
       fill-rule="nonzero"
       id="path40" />
  </g>
</svg>
