<?xml version="1.0" encoding="UTF-8" standalone="no"?>
<svg
   width="246.12965"
   zoomAndPan="magnify"
   viewBox="0 0 184.59724 177.91731"
   height="237.22308"
   preserveAspectRatio="xMidYMid"
   version="1.0"
   id="svg418"
   xmlns="http://www.w3.org/2000/svg"
   xmlns:svg="http://www.w3.org/2000/svg">
  <defs
     id="defs32" />
  <path
     fill="#f0dbdb"
     d="m 7.7100784,36.134032 c 4.2031296,7.57031 13.0234396,12.42187 21.6601596,11.61718 22.91406,-2.13281 24.59375,-32.71093 7.85547,-44.3164004 C 18.151488,-9.7878484 -2.2586716,18.184812 7.7100784,36.134032 Z m 0,0"
     fill-opacity="1"
     fill-rule="nonzero"
     id="path56" />
  <path
     fill="#f0dbdb"
     d="m 49.409298,146.87621 c 5.36719,9.29297 17.25391,14.47657 27.60547,11.58985 23.562502,-6.57032 18.66016,-35.99219 -0.0312,-45.11719 -21.11719,-10.3125 -38.50391,14.60547 -27.57031,33.52734 z m 0,0"
     fill-opacity="1"
     fill-rule="nonzero"
     id="path57" />
  <path
     fill="#fefcf3"
     d="m 157.10852,99.610592 c 0.78125,1.718748 1.79297,3.339838 2.98828,4.812498 3.64063,4.47265 8.9961,7.5664 14.74219,7.83984 18.54687,0.88672 6.125,-18.949218 -0.35547,-25.371088 -12.69141,-12.57422 -26.63672,-7.71875 -17.375,12.71875 z m 0,0"
     fill-opacity="1"
     fill-rule="nonzero"
     id="path58" />
  <path
     fill="#dba39a"
     d="m 120.79602,74.403562 c 0.43359,-0.0391 0.86328,-0.0977 1.29688,-0.17188 9.80859,-1.70312 17.27343,-11.98047 15.84375,-21.8164 -2.22266,-15.33594 -24.44532,-21.625 -34.21875,-8.96485 -3.36329,4.35938 -5.035162,10.13672 -3.925792,15.58594 1.894542,9.3125 11.582042,16.26562 21.003912,15.36719 z m 0,0"
     fill-opacity="1"
     fill-rule="nonzero"
     id="path59" />
  <path
     fill="#f5ebe0"
     d="m 2.5967984,156.52465 c 4.25,-5.53906 13.1367196,-6.76172 18.7304696,-2.57031 5.59766,4.18359 6.91016,13.04297 2.77344,18.66406 -4.13672,5.625 -12.9961,7.03125 -18.6757796,2.96094 -5.67968999,-4.06641 -7.17969,-12.89453 -3.16016,-18.60156 -0.30859,-1.39063 -0.61328,-2.77344 -0.91797,-4.16016"
     fill-opacity="1"
     fill-rule="nonzero"
     id="path60" />
  <path
     fill="#fefcf3"
     d="m 20.503048,68.024652 c 4.78516,-4.89844 13.53516,-5.13281 18.57813,-0.49609 5.03906,4.64062 5.51172,13.36328 1.00781,18.51953 -4.50781,5.15625 -13.23438,5.87109 -18.51953,1.51953 -5.28906,-4.35547 -6.2461,-13.04297 -2.03125,-18.4375"
     fill-opacity="1"
     fill-rule="nonzero"
     id="path61" />
  <path
     fill="#dba39a"
     d="m 126.49133,116.09106 c 7.07032,-1.81641 15.16797,2.78515 17.20313,9.78125 2.03906,7 -2.32031,15.21484 -9.26172,17.46484 -6.94531,2.25 -15.3125,-1.84375 -17.78125,-8.69922 -2.46875,-6.85547 1.37109,-15.32812 8.16016,-18.0039"
     fill-opacity="1"
     fill-rule="nonzero"
     id="path62" />
  <path
     fill="#f5ebe0"
     d="m 81.643678,82.298092 c 1.94922,-0.62891 3.75781,-1.70703 5.17968,-3.17578 4.04297,-4.16407 4.97657,-10.8125 2.85938,-16.21094 -1.96484,-5.01172 -7.44922,-11.63672 -13.56641,-10.67969 -6.07031,0.94922 -7.67968,8.85156 -9.13672,13.70703 -1.72265,5.73047 -1.2539,11.24219 3.96094,14.98828 3.05469,2.19532 7.1211,2.53516 10.70313,1.375 z m 0,0"
     fill-opacity="1"
     fill-rule="nonzero"
     id="path63" />
</svg>
